# xmcd
#
# Track frame offsets:
#	150
#	605
#	35139
#	69001
#	104320
#	124921
#	158466
#	190896
#	232611
#	269487
#	300179
#
# Disc length: 4501 seconds
#
# Revision: 0
# Processed by: cddbd v1.5.1PL0 Copyright (c) Steve Scherf et al.
# Submitted via: dBpowerAMP V4.0
#
DISCID=7b11930b
DTITLE=Waris Dirie - En blomma i Afrikas öken - CD-BOK 03/03
DYEAR=1998
DGENRE=CD-BOK
TTITLE0=03.01
TTITLE1=03.02
TTITLE2=03.03
TTITLE3=03.04
TTITLE4=03.05
TTITLE5=03.06
TTITLE6=03.07
TTITLE7=03.08
TTITLE8=03.09
TTITLE9=03.10
TTITLE10=03.11
EXTD=
EXTT0=
EXTT1=
EXTT2=
EXTT3=
EXTT4=
EXTT5=
EXTT6=
EXTT7=
EXTT8=
EXTT9=
EXTT10=
PLAYORDER=
